# AST/ASF file generated using VICON BodyLanguage
# -----------------------------------------------
:version 1.10
:name VICON
:units
  mass 1.0
  length 0.45
  angle deg
:documentation
   .ast/.asf automatically generated from VICON data using
   VICON BodyBuilder and BodyLanguage model FoxedUp or BRILLIANT.MOD
:root
   order TX TY TZ RX RY RZ
   axis XYZ
   position 0 0 0  
   orientation 0 -0 0 
:bonedata
  begin
     id 1 
     name lhipjoint
     direction 0.432694 -0.693742 0.575759 
     length 2.19277 
     axis 0 -0 0  XYZ
  end
  begin
     id 2 
     name lfemur
     direction 0.34202 -0.939693 0  
     length 6.69022  
     axis 0 -0 20  XYZ
    dof rx ry rz
    limits (-160.0 20.0)
           (-70.0 70.0)
           (-60.0 70.0)
  end
  begin
     id 3 
     name ltibia
     direction 0.34202 -0.939693 0   
     length 6.50337   
     axis 0 -0 20   XYZ
    dof rx
    limits (-10.0 170.0)
  end
  begin
     id 4 
     name lfoot
     direction 0.158999 -0.435969 0.885805   
     length 2.70564   
     axis -90 -1.13533e-015 20   XYZ
    dof rx rz
    limits (-45.0 90.0)
           (-70.0 20.0)
  end
  begin
     id 5 
     name ltoes
     direction -0.00592919 0.00964381 0.999936   
     length 1.29929   
     axis -90 -1.13533e-015 20   XYZ
    dof rx
    limits (-90.0 20.0)
  end
  begin
     id 6 
     name rhipjoint
     direction -0.414359 -0.700339 0.581234   
     length 2.17212  
     axis 0 -0 0  XYZ 
  end
  begin
     id 7 
     name rfemur
     direction -0.34202 -0.939693 0   
     length 7.17659   
     axis 0 -0 -20   XYZ
    dof rx ry rz
    limits (-160.0 20.0)
           (-70.0 70.0)
           (-70.0 60.0)
  end
  begin
     id 8 
     name rtibia
     direction -0.34202 -0.939693 0   
     length 6.36669   
     axis 0 -0 -20   XYZ
    dof rx
    limits (-10.0 170.0)
 end
 begin
     id 9 
     name rfoot
     direction -0.137064 -0.37658 0.916188   
     length 2.22351  
     axis -90 1.13533e-015 -20   XYZ
    dof rx rz
    limits (-45.0 90.0)
           (-20.0 70.0)
  end
  begin
     id 10 
     name rtoes
     direction -0.000784077 -0.00289101 0.999996   
     length 1.09522   
     axis -90 1.13533e-015 -20   XYZ
    dof rx
    limits (-90.0 20.0)
  end
  begin
     id 11 
     name lowerback
     direction -0.0176242 0.984912 -0.172157   
     length 1.65301   
     axis 0 -0 0   XYZ
    dof rx ry rz
    limits (-20.0 45.0)
           (-30.0 30.0)
           (-30.0 30.0)
  end
  begin
     id 12 
     name upperback
     direction -0.00218128 0.998776 -0.0494072   
     length 1.67776   
     axis 0 -0 0   XYZ
    dof rx ry rz
    limits (-20.0 45.0)
           (-30.0 30.0)
           (-30.0 30.0)
  end
  begin
     id 13 
     name thorax
     direction 0.00544186 0.999658 0.0255711   
     length 1.72293   
     axis 0 -0 0   XYZ
    dof rx ry rz
    limits (-20.0 45.0)
           (-30.0 30.0)
           (-30.0 30.0)
  end
  begin
     id 14 
     name lowerneck
     direction -0.105325 0.983841 0.144785   
     length 2.14226   
     axis 0 -0 0   XYZ
    dof rx ry rz
    limits (-20.0 45.0)
           (-30.0 30.0)
           (-30.0 30.0)
  end
  begin
     id 15 
     name upperneck
     direction 0.0547957 0.988053 -0.144041   
     length 2.17508   
     axis 0 -0 0   XYZ
    dof rx ry rz
    limits (-20.0 45.0)
           (-30.0 30.0)
           (-30.0 30.0)
  end
  begin
     id 16
     name head
     direction 0.0247488 0.997534 -0.0656813  
     length 2.20048  
     axis 0 -0 0   XYZ
    dof rx ry rz
    limits (-20.0 45.0)
           (-30.0 30.0)
           (-30.0 30.0)
  end
  begin
     id 17 
     name lclavicle
     direction 0.820559 0.567247 -0.0701026  
     length 4.09615  
     axis 0 -0 0   XYZ
    dof ry rz
    limits (-20.0 10.0)
           (0.0 20.0)
  end
  begin
     id 18 
     name lhumerus
     direction 0.999977 -0.0067566 -9.96392e-005   
     length 4.59333   
     axis -180 -30 -90   XYZ
    dof rx ry rz
    limits (-60.0 90.0)
           (-90.0 90.0)
           (-90.0 90.0)
  end
  begin
     id 19
     name lradius
     direction 1 -4.48982e-011 -2.53425e-027   
     length 2.81151   
     axis -180 -30 -90   XYZ
    dof rx
    limits (-10.0 170.0)
  end
  begin
     id 20
     name lwrist
     direction 1 -4.48939e-011 -7.39254e-028   
     length 1.40576   
     axis 2.56395e-016 90 90   XYZ
    dof ry
    limits (-180.0 0.0)
 end
  begin
     id 21 
     name lhand
     direction 1 -4.48939e-011 -1.47851e-027   
     length 0.895651   
     axis 9.43423e-016 90 90   XYZ
    dof rx rz
    limits (-90.0 90.0)
           (-45.0 45.0)
  end
  begin
     id 22 
     name lfingers
     direction 1 -4.48978e-011 -2.95702e-027   
     length 0.722097   
     axis 1.88685e-015 90 90   XYZ
    dof rx
    limits (0.0 90.0)
  end
  begin
     id 23
     name lthumb
     direction 0.707107 -6.34931e-011 0.707107   
     length 1.03679   
     axis -90 45 -9.86935e-015   XYZ
    dof rx rz
    limits (-45.0 45.0)
           (-45.0 45.0)
  end
  begin
     id 24 
     name rclavicle
     direction -0.831414 0.553102 -0.0531864   
     length 4.24872  
     axis 0 -0 0   XYZ 
    dof ry rz
    limits (-10.0 20.0)
           (-20.0 0.0)
  end
  begin
     id 25 
     name rhumerus
     direction -0.999916 -0.000939607 0.0129331  
     length 4.74834   
     axis -180 30 90   XYZ
    dof rx ry rz
    limits (-90.0 60.0)
           (-90.0 90.0)
           (-90.0 90.0)
  end
  begin
     id 26 
     name rradius
     direction -1 -4.48956e-011 -1.31752e-027   
     length 2.79907   
     axis -180 30 90   XYZ
    dof rx
    limits (-10.0 170.0)
  end
  begin
     id 27 
     name rwrist
     direction -1 -4.4897e-011 -7.39254e-028   
     length 1.39954   
     axis 2.56395e-016 -90 -90   XYZ
    dof ry
    limits (-180.0 0.0)
  end
  begin
     id 28
     name rhand
     direction -0.999997 -0.00250697 0.000800838   
     length 0.953304   
     axis 9.43423e-016 -90 -90   XYZ
    dof rx rz
    limits (-90.0 90.0)
           (-45.0 45.0)
  end
  begin
     id 29
     name rfingers
     direction -1 -4.48954e-011 -2.95702e-027   
     length 0.763342   
     axis 1.88685e-015 -90 -90   XYZ
    dof rx
    limits (0.0 90.0)
  end
  begin
     id 30
     name rthumb
     direction -0.709701 -0.00217037 0.7045   
     length 1.10115   
     axis -90 -45 9.86935e-015   XYZ
    dof rx rz
    limits (-45.0 45.0)
           (-45.0 45.0)
  end
:hierarchy
  begin
    root lhipjoint rhipjoint lowerback
    lhipjoint lfemur
    lfemur ltibia
    ltibia lfoot
    lfoot ltoes
    rhipjoint rfemur
    rfemur rtibia
    rtibia rfoot
    rfoot rtoes
    lowerback upperback
    upperback thorax
    thorax lowerneck lclavicle rclavicle
    lowerneck upperneck
    upperneck head
    lclavicle lhumerus
    lhumerus lradius
    lradius lwrist
    lwrist lhand lthumb
    lhand lfingers
    rclavicle rhumerus
    rhumerus rradius
    rradius rwrist
    rwrist rhand rthumb
    rhand rfingers
  end

#!OML:ASF G:\ViconDB\ViconDB\414\test\team2\shane.ASF
:FULLY-SPECIFIED
:DEGREES
132
root -6.18023 16.8652 -0.838449 -10.3285 23.3226 -6.73815
lowerback 8.85973 2.38896 4.34483
upperback 3.84338 3.58141 1.37842
thorax -0.79501 1.83848 -1.34039
lowerneck -15.6235 -2.85226 -4.75989
upperneck 23.5813 -4.27959 6.28807
head 10.362 -1.61975 2.46579
rclavicle 7.10655e-015 -7.55382e-015
rhumerus -15.4606 4.34457 -94.2687
rradius 29.7555
rwrist 38.7078
rhand -31.9325 -15.2134
rfingers 7.12502
rthumb -5.18355 -45.13
lclavicle 7.10655e-015 -7.55382e-015
lhumerus -40.3371 -5.24218 85.0081
lradius 15.272
lwrist -25.6601
lhand -36.0955 7.31356
lfingers 7.12502
lthumb -9.20194 37.0928
rfemur 18.7824 -18.2093 16.9422
rtibia 10.7761
rfoot -18.2805 2.7598
rtoes -8.67694
lfemur -15.4168 8.24314 -8.69718
ltibia 33.9521
lfoot -22.7599 -14.7696
ltoes -17.6086
133
root -6.10896 16.8662 -0.684638 -10.2731 23.5575 -6.79876
lowerback 8.83533 2.47697 4.4348
upperback 3.69482 3.70677 1.29672
thorax -0.917285 1.89729 -1.48874
lowerneck -15.5513 -2.80778 -4.55906
upperneck 23.6789 -4.23564 6.13749
head 10.3724 -1.5982 2.38588
rclavicle 5.96354e-015 9.93923e-015
rhumerus -15.1697 5.41797 -94.5591
rradius 30.6169
rwrist 37.9264
rhand -31.93 -14.9644
rfingers 7.12502
rthumb -5.18112 -44.8811
lclavicle 5.96354e-015 9.93923e-015
lhumerus -41.3712 -5.92706 85.0877
lradius 15.1865
lwrist -24.7624
lhand -35.9722 7.3275
lfingers 7.12502
lthumb -9.08301 37.1119
rfemur 20.436 -18.0966 16.9
rtibia 8.37718
rfoot -17.2093 2.43341
rtoes -8.9765
lfemur -16.0352 9.60228 -9.24536
ltibia 31.7445
lfoot -21.9248 -15.1303
ltoes -17.2171
134
root -6.03025 16.8558 -0.531879 -10.3639 23.9754 -7.17025
lowerback 8.68186 2.45349 4.79797
upperback 3.60961 3.69984 1.34816
thorax -0.900662 1.8957 -1.63125
lowerneck -15.4021 -2.79867 -4.75297
upperneck 23.5901 -4.199 6.24952
head 10.3159 -1.58872 2.46371
rclavicle -9.01985e-015 1.39149e-014
rhumerus -14.8635 6.75889 -94.6352
rradius 31.3929
rwrist 37.2798
rhand -31.9877 -14.806
rfingers 7.12502
rthumb -5.23685 -44.7213
lclavicle -9.01985e-015 1.39149e-014
lhumerus -42.2732 -6.16342 85.0701
lradius 15.1135
lwrist -24.1114
lhand -35.9324 7.24175
lfingers 7.12502
lthumb -9.04461 37.0278
rfemur 22.8833 -18.1841 17.0531
rtibia 4.26882
rfoot -15.1463 2.29833
rtoes -9.7002
lfemur -16.7894 11.0893 -9.6221
ltibia 30.0871
lfoot -21.4733 -15.6193
ltoes -16.758
135
root -5.9777 16.8611 -0.355526 -9.76066 26.3708 -6.70095
lowerback 7.88976 1.94681 3.51029
upperback 3.49461 2.88766 1.21755
thorax -0.694642 1.48146 -0.950638
lowerneck -15.5684 -2.70889 -4.49378
upperneck 23.7081 -4.09415 6.07392
head 10.3743 -1.53305 2.37209
rclavicle -5.48894e-014 7.95139e-016
rhumerus -14.5309 7.71064 -94.8166
rradius 32.3005
rwrist 36.7121
rhand -31.8878 -14.7769
rfingers 7.12502
rthumb -5.14035 -44.6946
lclavicle -5.48894e-014 7.95139e-016
lhumerus -42.7355 -4.70624 83.7149
lradius 14.6736
lwrist -25.2049
lhand -35.4406 7.22022
lfingers 7.12502
lthumb -8.56995 37.0263
rfemur 25.4123 -20.0999 16.2109
rtibia -9.54166e-015
rfoot -13.2878 2.17599
rtoes -10.6622
lfemur -18.5876 12.7851 -11.4302
ltibia 28.8695
lfoot -20.8355 -18.0598
ltoes -16.7956
136
root -5.87548 16.8472 -0.216939 -10.3151 24.1992 -7.53899
lowerback 8.36386 2.67287 5.06822
upperback 3.32248 3.99989 1.27796
thorax -0.979824 2.0404 -1.86982
lowerneck -15.0373 -2.71725 -4.39325
upperneck 23.5549 -4.13411 6.05649
head 10.2161 -1.55368 2.34443
rclavicle -7.0494e-014 -1.66979e-014
rhumerus -14.5428 8.39575 -95.0254
rradius 33.0171
rwrist 36.3009
rhand -32.0369 -14.6345
rfingers 7.12502
rthumb -5.28436 -44.5486
lclavicle -7.0494e-014 -1.66979e-014
lhumerus -43.235 -1.23744 80.6019
lradius 13.794
lwrist -29.7842
lhand -35.228 6.58908
lfingers 7.12502
lthumb -8.36484 36.4034
rfemur 25.8843 -17.7085 17.2168
rtibia -1.27222e-014
rfoot -13.1812 1.78069
rtoes -11.5296
lfemur -18.6235 15.9828 -10.8593
ltibia 28.1579
lfoot -21.0233 -17.2373
ltoes -16.9648
137
root -5.78698 16.8387 -0.0611704 -10.4454 24.3383 -7.8994
lowerback 8.3328 2.70353 5.41851
upperback 3.20162 4.07076 1.30506
thorax -1.05948 2.07355 -2.0439
lowerneck -15.1117 -2.64695 -4.18026
upperneck 23.7352 -4.03392 5.82306
head 10.2796 -1.51146 2.24078
rclavicle 3.08862e-014 1.59028e-015
rhumerus -14.392 9.16852 -95.1226
rradius 33.7194
rwrist 36.0992
rhand -32.0145 -14.4956
rfingers 7.12502
rthumb -5.26276 -44.4103
lclavicle 3.08862e-014 1.59028e-015
lhumerus -44.6977 -5.17977 83.4282
lradius 14.6163
lwrist -23.9542
lhand -35.3283 7.51789
lfingers 7.12502
lthumb -8.46163 37.3284
rfemur 26.5254 -17.5061 17.3825
rtibia 2.54444e-014
rfoot -13.2844 1.46255
rtoes -12.391
lfemur -19.6012 18.696 -11.4031
ltibia 27.7814
lfoot -21.1198 -18.3333
ltoes -17.2172
138
root -5.69445 16.8239 0.0950701 -10.4606 24.3569 -8.2579
lowerback 8.02976 2.80856 5.82217
upperback 3.1323 4.22198 1.29549
thorax -0.921391 2.15396 -2.27243
lowerneck -15.0546 -2.65985 -4.19854
upperneck 23.6273 -4.06586 5.91007
head 10.2339 -1.51951 2.26949
rclavicle 5.71257e-014 5.96354e-015
rhumerus -14.163 10.0589 -95.1945
rradius 34.3709
rwrist 35.7348
rhand -32.1085 -14.5849
rfingers 7.12502
rthumb -5.35353 -44.4972
lclavicle 5.71257e-014 5.96354e-015
lhumerus -45.1875 -4.21762 82.379
lradius 14.2758
lwrist -25.3376
lhand -34.9067 7.3644
lfingers 7.12502
lthumb -8.05475 37.1909
rfemur 27.0467 -17.187 17.6044
rtibia -3.18055e-015
rfoot -13.4055 1.20954
rtoes -12.8574
lfemur -20.6556 21.2588 -11.951
ltibia 27.8599
lfoot -21.4792 -19.278
ltoes -17.208
139
root -5.60084 16.8022 0.256058 -10.4872 24.5977 -8.56387
lowerback 7.82817 2.84056 6.00906
upperback 2.95717 4.27075 1.32577
thorax -0.975784 2.17373 -2.34227
lowerneck -15.0541 -2.59613 -3.95574
upperneck 23.8035 -3.97822 5.65405
head 10.2814 -1.48404 2.15139
rclavicle -1.0056e-013 -1.35174e-014
rhumerus -14.1981 11.0048 -95.3064
rradius 35.1817
rwrist 34.5696
rhand -31.9074 -14.5345
rfingers 7.12502
rthumb -5.15927 -44.4517
lclavicle -1.0056e-013 -1.35174e-014
lhumerus -45.6929 -2.17676 80.507
lradius 13.7436
lwrist -27.4294
lhand -34.6635 7.0749
lfingers 7.12502
lthumb -7.82004 36.9103
rfemur 27.6531 -17.0447 17.6558
rtibia 5.08889e-014
rfoot -13.4416 1.08277
rtoes -13.3584
lfemur -21.5502 24.0214 -12.6442
ltibia 28.0673
lfoot -22.2284 -20.8587
ltoes -17.9495
140
root -5.50463 16.7511 0.410589 -10.4338 24.7708 -8.83671
lowerback 7.64272 2.84881 6.15041
upperback 2.78353 4.28541 1.36059
thorax -1.04403 2.17552 -2.38068
lowerneck -15.128 -2.51895 -3.88024
upperneck 23.9389 -3.87733 5.60026
head 10.3362 -1.43373 2.13458
rclavicle -4.14218e-014 -1.07344e-014
rhumerus -14.2072 11.9847 -95.3665
rradius 35.7821
rwrist 34.3685
rhand -32.07 -14.4948
rfingers 7.12502
rthumb -5.31631 -44.4081
lclavicle -1.0056e-013 -1.35174e-014
lhumerus -45.6929 -2.17676 80.507
lradius 13.7436
lwrist -27.4294
lhand -34.6635 7.0749
lfingers 7.12502
lthumb -7.82004 36.9103
rfemur 28.1666 -16.8499 17.7606
rtibia -3.18055e-015
rfoot -13.5231 0.656531
rtoes -14.671
lfemur -21.9637 24.5443 -12.9198
ltibia 28.4382
lfoot -23.6077 -20.2493
ltoes -18.469
141
root -5.41021 16.7126 0.567789 -10.6761 24.8291 -9.44679
lowerback 7.61828 2.8845 6.6294
upperback 2.6018 4.37505 1.41834
thorax -1.17865 2.21351 -2.59712
lowerneck -14.9939 -2.471 -3.60479
upperneck 23.9389 -3.83756 5.4248
head 10.2987 -1.41223 2.03142
rclavicle -1.2275e-014 -3.18055e-015
rhumerus -14.2803 12.3886 -95.5565
rradius 36.3392
rwrist 33.8788
rhand -32.0664 -14.2413
rfingers 7.12502
rthumb -5.31287 -44.1547
lclavicle -1.2275e-014 -3.18055e-015
lhumerus -47.2678 -2.96136 80.615
lradius 13.9377
lwrist -25.0236
lhand -33.9854 7.13903
lfingers 7.12502
lthumb -7.16548 36.9977
rfemur 28.8401 -16.5963 18.1576
rtibia -2.8625e-014
rfoot -13.4045 0.454525
rtoes -16.3181
lfemur -21.8867 24.7865 -12.6803
ltibia 28.9174
lfoot -24.6943 -19.0573
ltoes -19.7355
142
root -5.29038 16.6799 0.706 -10.6848 24.8783 -9.60011
lowerback 7.67609 2.90477 6.97598
upperback 2.45165 4.43974 1.43342
thorax -1.33454 2.23766 -2.78673
lowerneck -15.0984 -2.38731 -3.57516
upperneck 24.0256 -3.69047 5.2844
head 10.3388 -1.35553 1.99672
rclavicle -1.17805e-013 -1.90833e-014
rhumerus -14.2849 12.712 -95.435
rradius 36.6404
rwrist 34.6505
rhand -32.1926 -13.9519
rfingers 7.12502
rthumb -5.43467 -43.8622
lclavicle -1.2275e-014 -3.18055e-015
lhumerus -47.2678 -2.96136 80.615
lradius 13.9377
lwrist -25.0236
lhand -33.9854 7.13903
lfingers 7.12502
lthumb -7.16548 36.9977
rfemur 29.4399 -16.1757 17.968
rtibia 5.08889e-014
rfoot -13.2576 0.454794
rtoes -17.7305
lfemur -21.6445 24.1519 -12.8255
ltibia 29.5297
lfoot -24.4091 -17.4138
ltoes -19.0884
143
root -5.18769 16.6501 0.856642 -10.6467 25.1384 -9.74071
lowerback 7.41262 2.98383 7.1959
upperback 2.4241 4.53677 1.3472
thorax -1.18255 2.29145 -2.98683
lowerneck -15.3307 -2.461 -3.57495
upperneck 24.0735 -3.80669 5.34332
head 10.4088 -1.39766 2.00125
rclavicle -3.34207e-014 -4.77083e-015
rhumerus -14.1586 13.3378 -95.4313
rradius 37.2221
rwrist 33.8304
rhand -32.0382 -14.1814
rfingers 7.12502
rthumb -5.28558 -44.0954
lclavicle -3.34207e-014 -4.77083e-015
lhumerus -48.016 -1.44821 79.2111
lradius 13.2056
lwrist -27.1274
lhand -34.5463 7.27093
lfingers 7.12502
lthumb -7.70683 37.1105
rfemur 30.031 -15.9816 17.7987
rtibia -7.63333e-014
rfoot -12.9706 0.56515
rtoes -18.2654
lfemur -21.417 24.0143 -13.0823
ltibia 30.058
lfoot -23.2934 -16.565
ltoes -18.4964
144
root -5.0699 16.6227 1.01894 -10.8346 25.0005 -9.8468
lowerback 7.37245 3.0495 7.1125
upperback 2.31366 4.62133 1.41557
thorax -1.27916 2.32686 -2.87788
lowerneck -15.2079 -2.37098 -3.47027
upperneck 24.1441 -3.67899 5.22152
head 10.3993 -1.34417 1.95906
rclavicle -3.926e-014 -1.70955e-014
rhumerus -14.6139 13.8977 -95.525
rradius 37.7832
rwrist 33.9083
rhand -32.0107 -14.1736
rfingers 7.12502
rthumb -5.25909 -44.0884
lclavicle -3.926e-014 -1.70955e-014
lhumerus -48.2726 1.99061 76.1887
lradius 12.2833
lwrist -30.7776
lhand -34.2735 6.60535
lfingers 7.12502
lthumb -7.44355 36.4544
rfemur 30.8676 -15.3703 17.5966
rtibia 1.24042e-013
rfoot -12.5938 0.697042
rtoes -19.478
lfemur -20.7079 24.0796 -13.0889
ltibia 30.6148
lfoot -22.7141 -15.9812
ltoes -17.1714
145
root -4.95433 16.5921 1.18102 -11.1237 25.0024 -10.1267
lowerback 7.24414 3.11258 7.2847
upperback 2.32556 4.70668 1.4597
thorax -1.17641 2.37378 -2.92315
lowerneck -15.2519 -2.33461 -3.2794
upperneck 24.0895 -3.63718 5.07684
head 10.3791 -1.32457 1.87965
rclavicle -1.41386e-014 -2.38542e-015
rhumerus -14.862 14.254 -95.572
rradius 38.2035
rwrist 33.8199
rhand -32.1063 -13.9157
rfingers 7.12502
rthumb -5.35132 -43.8282
lclavicle -1.41386e-014 -2.38542e-015
lhumerus -48.6614 1.91442 76.2126
lradius 12.2155
lwrist -30.6614
lhand -34.5159 7.03572
lfingers 7.12502
lthumb -7.67749 36.8764
rfemur 31.7319 -14.9121 17.5018
rtibia 6.04305e-014
rfoot -11.9854 1.0688
rtoes -20.855
lfemur -19.9196 23.5456 -12.7868
ltibia 31.0882
lfoot -22.0437 -16.1218
ltoes -15.1536
146
root -4.83153 16.5847 1.34774 -11.2406 24.9313 -10.2267
lowerback 7.05271 3.19318 7.31639
upperback 2.27126 4.79844 1.34857
thorax -1.10472 2.42101 -3.04943
lowerneck -15.3771 -2.28665 -3.03318
upperneck 24.0916 -3.67739 5.24415
head 10.4052 -1.29838 1.89157
rclavicle 5.30258e-014 -1.27222e-014
rhumerus -15.2783 14.6423 -95.8524
rradius 38.631
rwrist 33.6189
rhand -32.1743 -13.6896
rfingers 7.12502
rthumb -5.41707 -43.6003
lclavicle 5.30258e-014 -1.27222e-014
lhumerus -48.8902 3.81637 74.1913
lradius 11.8259
lwrist -32.6366
lhand -34.3972 6.97247
lfingers 7.12502
lthumb -7.56295 36.8173
rfemur 32.4562 -14.3571 17.305
rtibia -4.13472e-014
rfoot -11.2203 1.34395
rtoes -22.4728
lfemur -19.3892 22.9831 -12.6318
ltibia 31.5094
lfoot -20.765 -16.4768
ltoes -12.6737
